<?xml version="1.0" standalone="no"?>
<!DOCTYPE svg PUBLIC "-//W3C//DTD SVG 20010904//EN"
 "http://www.w3.org/TR/2001/REC-SVG-20010904/DTD/svg10.dtd">
<svg version="1.0" xmlns="http://www.w3.org/2000/svg"
 width="2160.000000pt" height="1620.000000pt" viewBox="0 0 2160.000000 1620.000000"
 preserveAspectRatio="xMidYMid meet">

<g transform="translate(0.000000,1620.000000) scale(0.100000,-0.100000)"
fill="#000000" stroke="none">
<path d="M3513 12690 c-633 -89 -1177 -792 -1574 -2038 -173 -539 -273 -1047
-332 -1677 l-12 -130 -60 -6 c-33 -4 -113 -7 -178 -8 -95 -1 -129 3 -180 20
-211 72 -427 -78 -427 -297 0 -94 22 -154 80 -217 59 -64 123 -101 227 -128
68 -18 107 -21 296 -20 l217 0 0 -97 c1 -440 81 -906 225 -1307 276 -768 877
-1326 1476 -1370 261 -19 510 84 725 300 75 76 213 260 238 318 3 8 8 6 16 -6
151 -239 429 -463 717 -577 235 -93 489 -137 685 -120 416 36 735 218 1039
590 l35 43 42 -75 c136 -248 374 -445 662 -546 324 -113 671 -132 985 -52 363
92 677 288 933 580 140 161 280 406 367 644 21 60 41 104 42 99 2 -6 -30 -163
-71 -349 -41 -186 -154 -699 -251 -1139 -97 -440 -205 -933 -241 -1095 -36
-162 -99 -448 -140 -635 -41 -187 -104 -470 -139 -630 -145 -657 -235 -1065
-254 -1155 -41 -188 -22 -285 76 -383 134 -134 374 -112 481 46 41 59 44 73
128 452 41 187 99 450 129 585 30 135 88 400 130 590 42 190 100 455 130 590
30 135 88 400 130 590 42 190 100 455 130 590 30 135 79 358 109 495 49 224
110 502 281 1275 77 350 216 982 361 1640 121 553 114 527 155 590 117 177
293 329 479 410 47 21 71 25 160 25 99 0 109 -2 173 -33 116 -57 217 -183 253
-315 22 -80 19 -289 -5 -417 -24 -121 -105 -408 -185 -655 -110 -341 -166
-636 -166 -877 0 -491 257 -861 644 -929 86 -15 269 -7 351 16 93 25 252 106
341 173 282 213 475 537 856 1432 55 129 153 359 218 510 65 151 163 383 218
515 152 362 210 490 220 490 9 0 128 -108 506 -460 294 -274 423 -462 501
-729 39 -137 48 -216 42 -371 -7 -168 -27 -248 -98 -385 -97 -189 -256 -334
-428 -391 -119 -40 -272 -25 -347 33 -48 39 -84 106 -84 161 0 69 24 111 92
164 110 84 154 174 146 294 -9 122 -72 214 -187 271 -37 18 -62 23 -131 22
-73 0 -93 -4 -141 -28 -130 -65 -273 -216 -349 -371 -50 -103 -69 -177 -77
-295 -14 -246 85 -491 270 -666 133 -126 268 -193 464 -233 458 -94 952 140
1262 597 59 88 147 269 182 375 75 229 95 545 50 802 -28 162 -94 365 -166
511 -30 61 -55 115 -55 119 0 12 130 195 213 297 91 113 167 179 253 220 109
51 160 50 215 -4 104 -105 165 -371 204 -898 24 -327 56 -517 116 -700 168
-509 522 -820 933 -820 204 0 483 100 662 236 25 20 48 33 51 30 6 -6 -1 -47
-58 -351 -173 -916 -448 -1703 -799 -2280 -77 -128 -201 -310 -247 -362 l-28
-32 -160 85 c-1287 682 -1886 943 -2561 1114 -604 153 -1200 181 -1684 79
-383 -81 -696 -239 -936 -471 -554 -538 -523 -1318 78 -1944 186 -193 385
-341 633 -470 1031 -538 2432 -552 3570 -36 350 159 755 422 1025 666 52 47
118 106 147 131 l51 46 114 -52 c542 -248 939 -378 1385 -454 387 -65 834 -81
1148 -40 288 38 485 100 807 253 146 70 205 118 245 201 39 80 38 191 -1 273
-53 111 -166 182 -292 181 -65 -1 -83 -6 -181 -51 -379 -176 -524 -216 -840
-231 -433 -21 -918 49 -1358 194 -211 70 -585 223 -585 240 0 4 51 84 114 178
461 695 784 1572 1001 2722 114 604 209 1379 240 1965 4 69 11 143 15 165 38
176 75 512 67 613 -18 244 -247 387 -462 288 -173 -79 -219 -208 -245 -688 -9
-159 -16 -204 -50 -339 -115 -461 -253 -762 -449 -981 -96 -106 -232 -193
-351 -224 -55 -14 -66 -14 -117 1 -176 51 -321 390 -348 815 -25 389 -70 723
-120 894 -48 166 -130 333 -220 447 -92 117 -289 246 -426 278 -232 54 -511
-16 -759 -190 -98 -68 -244 -217 -348 -354 -46 -61 -88 -110 -93 -110 -4 0
-110 95 -235 210 -475 439 -567 516 -684 570 -60 28 -74 30 -175 30 -103 0
-114 -2 -179 -33 -49 -23 -87 -52 -133 -99 -56 -58 -76 -90 -158 -257 -87
-179 -137 -291 -265 -596 -62 -147 -360 -849 -467 -1100 -334 -780 -498 -1052
-692 -1148 -102 -51 -151 -40 -192 40 -83 163 -51 465 101 938 195 606 247
885 223 1187 -13 162 -43 275 -108 411 -138 288 -368 494 -663 592 -400 133
-842 -6 -1246 -391 -84 -79 -95 -87 -150 -97 -33 -7 -78 -23 -100 -36 -23 -14
-202 -155 -398 -315 -197 -160 -360 -291 -363 -291 -2 0 -26 33 -53 73 -184
270 -451 475 -748 573 -321 105 -685 92 -1014 -35 -191 -74 -373 -197 -568
-385 -57 -55 -106 -95 -111 -90 -4 5 -38 56 -76 114 -124 190 -349 389 -529
470 -156 70 -284 99 -462 107 -343 14 -649 -80 -944 -290 -114 -81 -337 -306
-437 -440 -97 -131 -216 -327 -282 -468 -91 -194 -142 -333 -316 -854 -179
-539 -253 -739 -336 -910 -93 -191 -188 -309 -292 -361 -45 -23 -60 -26 -122
-22 -128 9 -259 73 -413 203 -360 302 -589 824 -661 1505 -12 114 -27 540 -18
540 22 0 299 92 423 141 760 298 1328 819 1685 1544 406 827 460 1657 141
2193 -148 249 -373 427 -615 486 -81 20 -248 28 -334 16z m243 -670 c109 -62
192 -199 240 -395 97 -395 -67 -1081 -378 -1574 -254 -404 -568 -689 -991
-898 -139 -70 -356 -158 -365 -149 -8 9 38 371 73 573 121 696 404 1504 685
1954 123 197 260 351 384 433 99 66 152 85 236 85 54 1 74 -4 116 -29z m2379
-3273 c205 -56 385 -253 470 -511 14 -44 24 -80 23 -81 -2 -1 -18 -8 -37 -15
-19 -8 -67 -35 -108 -62 -219 -143 -416 -198 -709 -198 -162 0 -278 17 -408
61 -100 33 -274 120 -301 149 -17 18 -16 21 8 63 47 79 147 207 230 294 163
170 325 265 527 308 76 17 229 12 305 -8z m2377 -112 c81 -17 170 -52 245 -96
71 -42 196 -165 250 -244 46 -69 113 -198 113 -219 0 -7 -12 -22 -27 -32 -16
-10 -61 -44 -102 -76 -40 -33 -99 -72 -130 -88 -120 -60 -368 -109 -554 -110
-255 0 -632 78 -846 176 l-73 34 27 47 c66 113 137 205 240 308 168 169 320
260 500 298 90 20 271 21 357 2z m1534 -736 c-30 -134 -84 -382 -122 -551 -37
-170 -69 -306 -72 -304 -2 3 2 71 8 153 16 180 8 498 -15 637 -13 81 -14 101
-3 112 34 32 251 204 254 201 2 -2 -20 -114 -50 -248z m-5116 -472 c234 -115
433 -169 694 -188 318 -24 675 30 916 138 111 50 104 50 96 -4 -18 -137 -98
-408 -172 -581 -121 -284 -339 -580 -517 -701 -121 -82 -280 -127 -422 -117
-162 10 -352 73 -485 161 -92 60 -213 181 -259 259 -44 75 -95 210 -133 355
-17 64 -36 128 -43 142 -12 23 -5 51 82 318 52 160 98 291 101 289 4 -2 68
-34 142 -71z m4288 -189 c-36 -398 -184 -766 -399 -993 -173 -182 -409 -308
-658 -351 -89 -15 -118 -16 -215 -6 -437 44 -628 202 -716 592 -21 94 -49 180
-75 229 -16 32 -15 36 19 149 41 139 68 245 92 365 10 52 22 87 29 87 6 0 38
-9 71 -21 89 -31 296 -85 414 -108 492 -98 1021 -52 1357 117 43 22 80 38 83
37 4 -2 2 -46 -2 -97z m4817 -2797 c772 -103 1360 -331 2803 -1088 l133 -70
-63 -55 c-335 -291 -789 -537 -1233 -671 -379 -114 -698 -161 -1085 -160 -825
2 -1554 255 -1959 679 -198 206 -295 408 -294 609 0 161 49 277 171 407 185
196 494 321 907 368 121 13 449 3 620 -19z"/>
<path d="M5920 10214 c-294 -26 -635 -151 -873 -321 -108 -77 -297 -261 -297
-289 0 -38 37 -74 76 -74 30 0 47 12 124 84 117 111 174 155 285 222 106 63
217 112 365 160 197 64 361 83 550 64 116 -12 123 -11 149 7 18 14 27 31 29
55 4 50 -28 73 -110 81 -100 10 -249 15 -298 11z"/>
<path d="M8517 9962 c-56 -6 -72 -12 -88 -31 -24 -29 -24 -62 0 -92 18 -22 23
-23 217 -25 189 -1 205 -3 322 -33 355 -93 623 -261 750 -471 46 -76 78 -99
119 -85 35 13 58 53 50 87 -12 45 -107 177 -180 249 -178 175 -467 318 -763
378 -110 23 -317 33 -427 23z"/>
<path d="M5460 4913 c-67 -24 -161 -122 -183 -192 -23 -73 -22 -157 4 -228 19
-51 40 -77 183 -218 169 -169 233 -217 406 -308 377 -199 771 -275 1210 -233
359 34 504 73 712 189 157 88 390 292 444 389 26 48 29 62 29 148 0 87 -3 100
-30 149 -63 114 -175 176 -300 169 -95 -6 -149 -32 -236 -115 -216 -204 -329
-256 -615 -283 -331 -31 -562 0 -815 110 -161 70 -224 113 -370 256 -163 161
-205 184 -319 183 -41 0 -95 -8 -120 -16z"/>
</g>
</svg>
