<?xml version="1.0" standalone="no"?>
<!DOCTYPE svg PUBLIC "-//W3C//DTD SVG 20010904//EN"
 "http://www.w3.org/TR/2001/REC-SVG-20010904/DTD/svg10.dtd">
<svg version="1.0" xmlns="http://www.w3.org/2000/svg"
 width="795.000000pt" height="371.000000pt" viewBox="0 0 795.000000 371.000000"
 preserveAspectRatio="xMidYMid meet">

<g transform="translate(0.000000,371.000000) scale(0.100000,-0.100000)"
fill="#000000" stroke="none">
<path d="M1159 3615 c-32 -18 -56 -73 -167 -385 -281 -793 -470 -1479 -568
-2057 l-27 -162 -89 -27 c-66 -20 -95 -35 -114 -57 -43 -51 -24 -124 37 -146
23 -8 46 -5 114 15 58 17 96 22 123 18 34 -5 44 -2 75 26 30 26 71 42 224 86
537 157 907 220 1105 189 42 -6 50 -4 72 19 20 19 26 35 26 69 0 61 -36 94
-119 109 -157 29 -607 -50 -1096 -191 -77 -23 -143 -41 -147 -41 -9 0 -10 -5
43 264 47 243 143 636 224 916 68 236 257 805 354 1064 39 104 71 203 71 219
0 38 -49 87 -87 87 -15 -1 -40 -7 -54 -15z"/>
<path d="M2505 2431 c-22 -10 -61 -37 -87 -60 -42 -37 -49 -40 -74 -31 -63 24
-148 -46 -216 -177 -128 -247 -134 -553 -12 -683 115 -123 277 -118 420 12 60
56 132 147 176 226 l30 52 51 0 c49 0 211 21 285 36 l32 7 0 -76 c0 -108 30
-197 86 -257 115 -123 277 -118 420 12 60 55 132 147 175 224 l29 51 98 7 c53
4 130 12 170 19 39 7 72 10 72 7 0 -3 -29 -107 -64 -231 -68 -241 -125 -485
-180 -779 -45 -241 -106 -635 -106 -687 0 -53 31 -91 81 -99 30 -5 41 -1 68
22 31 28 32 33 62 229 53 360 119 705 196 1022 34 142 39 154 58 149 11 -3 70
-10 132 -16 353 -33 724 82 1014 315 l65 53 59 -39 c33 -21 63 -39 67 -39 20
0 2 -19 -58 -60 -94 -64 -197 -176 -218 -235 -20 -59 -20 -96 -2 -138 52 -122
227 -130 456 -20 78 38 109 59 171 122 79 80 99 120 99 198 0 21 -8 55 -19 75
l-18 37 86 36 c104 44 332 127 336 123 2 -2 -1 -30 -7 -63 -12 -75 -4 -136 24
-186 25 -45 49 -63 105 -78 94 -26 212 47 412 255 74 77 131 130 128 119 -4
-11 -22 -78 -42 -148 -19 -71 -38 -135 -42 -142 -5 -7 -57 -49 -118 -93 -335
-243 -596 -525 -725 -787 -74 -149 -100 -240 -107 -375 -9 -164 22 -247 110
-291 54 -28 142 -23 211 11 215 107 524 637 747 1279 l43 124 80 52 c121 78
360 209 522 286 80 39 148 77 153 88 19 35 13 90 -13 116 -43 43 -65 42 -188
-15 -120 -55 -278 -137 -391 -202 -38 -22 -71 -38 -73 -35 -2 2 9 60 26 128
16 68 41 187 55 264 21 114 23 145 14 168 -20 48 -101 74 -140 44 -8 -7 -29
-32 -46 -57 -119 -174 -509 -590 -552 -590 -23 0 28 196 100 390 27 70 38 113
34 131 -9 39 -50 73 -89 73 -59 0 -79 -23 -124 -141 l-42 -108 -103 -29 c-124
-35 -317 -107 -461 -171 l-106 -48 -79 36 c-115 51 -161 83 -161 110 0 12 -4
28 -9 36 -36 57 192 251 296 251 l33 0 -15 -37 c-9 -20 -26 -51 -39 -67 -34
-45 -39 -70 -22 -109 17 -42 42 -57 91 -57 48 0 82 36 132 138 33 67 38 85 38
148 0 84 -18 117 -79 148 -100 50 -254 25 -387 -62 -139 -91 -236 -225 -248
-342 -6 -56 -8 -59 -66 -107 -71 -60 -177 -129 -260 -171 -59 -29 -227 -92
-247 -92 -6 0 19 31 55 69 236 251 180 623 -94 621 -71 -1 -163 -39 -256 -106
l-23 -16 15 42 c34 98 2 160 -84 160 -53 0 -75 -33 -136 -205 -32 -88 -64
-165 -71 -171 -15 -12 -142 -38 -251 -53 -73 -9 -70 -13 -47 86 28 120 6 235
-60 310 -52 59 -104 83 -181 83 -72 0 -122 -21 -187 -79 -42 -37 -49 -40 -74
-31 -41 16 -87 -4 -137 -60 -45 -50 -105 -156 -126 -222 -14 -43 -25 -47 -176
-72 -142 -23 -155 -24 -155 -10 0 7 7 43 16 81 17 73 15 149 -7 221 -16 55
-81 129 -134 153 -53 24 -147 24 -200 0z m139 -186 c24 -25 29 -93 12 -169
-24 -101 -24 -101 -78 -67 -55 35 -78 74 -78 130 0 33 7 47 38 81 42 43 79 52
106 25z m1080 0 c24 -25 29 -93 12 -169 -24 -101 -24 -101 -78 -67 -55 35 -78
74 -78 130 0 33 7 47 38 81 42 43 79 52 106 25z m1097 -142 c16 -41 4 -128
-26 -188 -35 -73 -141 -170 -241 -222 -80 -42 -199 -81 -210 -70 -18 18 176
319 261 404 99 98 194 132 216 76z m-2458 -151 c28 -43 94 -100 145 -126 17
-9 32 -20 32 -25 0 -17 -88 -127 -134 -168 -108 -95 -174 -60 -184 98 -6 97
11 194 50 287 l31 74 17 -51 c9 -27 28 -67 43 -89z m1080 0 c28 -43 94 -100
145 -126 17 -9 32 -20 32 -25 0 -17 -88 -127 -134 -168 -108 -95 -174 -60
-184 98 -6 97 11 194 50 287 l31 74 17 -51 c9 -27 28 -67 43 -89z m2421 -384
c29 -47 -158 -173 -302 -203 -32 -7 -33 -6 -23 13 22 42 279 218 305 209 5 -2
14 -10 20 -19z m1021 -373 c-45 -121 -117 -279 -201 -445 -134 -265 -253 -434
-351 -501 -68 -47 -77 -38 -70 79 11 214 128 435 357 676 85 89 268 256 282
256 4 0 -3 -29 -17 -65z"/>
<path d="M2395 1193 c-30 -7 -72 -51 -78 -81 -9 -44 26 -105 108 -191 135
-141 273 -215 425 -228 195 -16 411 95 582 300 53 64 63 111 32 156 -22 31
-74 52 -107 43 -14 -4 -75 -54 -134 -112 -144 -140 -210 -175 -332 -175 -72 0
-95 4 -141 26 -76 36 -151 98 -212 176 -30 38 -66 71 -85 79 -18 8 -34 13 -35
13 -2 -1 -12 -3 -23 -6z"/>
</g>
</svg>
